<?xml version="1.0" standalone="no"?><!DOCTYPE svg PUBLIC "-//W3C//DTD SVG 1.1//EN" "http://www.w3.org/Graphics/SVG/1.1/DTD/svg11.dtd"><svg t="1542396905957" class="icon" style="" viewBox="0 0 1024 1024" version="1.1" xmlns="http://www.w3.org/2000/svg" p-id="2047" xmlns:xlink="http://www.w3.org/1999/xlink" width="128" height="128"><defs><style type="text/css"></style></defs><path d="M891.1 339.3h-90.2l38.7-22.3c49.4-28.6 66.3-91.8 37.8-141.2L843 116.3c-13.8-23.8-36-41-62.7-48.2-26.7-7.1-54.6-3.5-78.5 10.3l-81 46.8-43.5-36.4c-21-17.7-48.1-26.2-75.4-23.8-27.3 2.2-52.6 15.4-70.2 36.5L232 339.5h-98.9c-38.1 0-68.9 30.9-68.9 68.9v482.5c0 38.1 30.9 68.9 68.9 68.9h758.2c38.1 0 68.9-30.9 68.9-68.9V408.2c-0.2-38.1-31.1-68.9-69.1-68.9zM736.1 138s0.1 0 0.1-0.1c16.5-9.5 37.5-3.8 47 12.7l34.5 59.7c9.4 16.5 3.8 37.5-12.6 47.1l-142 81.9H387.4L736.1 138z m-251.7 7.6c5.8-7 14.3-11.4 23.4-12.1 9.1-0.9 18.2 2 25.2 7.9l24.2 20.3-167.3 96.6 94.5-112.7z m406.7 745.1H132.9V408.2h758.2v103.4H617.5c-38.1 0-68.9 30.9-68.9 68.9v137.8c0 38.1 30.9 68.9 68.9 68.9h273.6v103.5z m0-172.3H617.5V580.5h273.6v137.9z" fill="#ffffff" p-id="2048"></path><path d="M722 683.9c19 0 34.5-15.4 34.5-34.4S741.1 615 722.1 615s-34.5 15.4-34.5 34.4c-0.1 19.1 15.4 34.5 34.4 34.5z" fill="#ffffff" p-id="2049"></path></svg>