<?xml version="1.0" standalone="no"?><!DOCTYPE svg PUBLIC "-//W3C//DTD SVG 1.1//EN" "http://www.w3.org/Graphics/SVG/1.1/DTD/svg11.dtd"><svg t="1536499027565" class="icon" style="" viewBox="0 0 1024 1024" version="1.1" xmlns="http://www.w3.org/2000/svg" p-id="9032" xmlns:xlink="http://www.w3.org/1999/xlink" width="128" height="128"><defs><style type="text/css"></style></defs><path d="M834.438222 57.776H727.314667c-45.218667 0-82.006222 36.787556-82.006223 82.006222v24.281778h-187.475555c-15.709333 0-28.444444 12.735111-28.444445 28.444444v291.147556H323.680889a71.152889 71.152889 0 0 0-14.944889-21.901333l-64.486222-64.486223c-13.448-13.447111-31.327111-20.853333-50.344889-20.853333-19.018667 0-36.897778 7.406222-50.345778 20.853333l-64.485333 64.485334c-13.448 13.447111-20.854222 31.327111-20.854222 50.345778 0 19.017778 7.406222 36.897778 20.853333 50.344888l64.486222 64.485334c13.448 13.447111 31.327111 20.853333 50.345778 20.853333 19.017778 0 36.896889-7.406222 50.345778-20.853333l64.484444-64.485334a71.111111 71.111111 0 0 0 14.944889-21.901333h105.708444v292.195556c0 15.709333 12.735111 28.444444 28.444445 28.444444h187.476444v24.281778c0 45.218667 36.787556 82.006222 82.006223 82.006222h107.123555c45.218667 0 82.006222-36.787556 82.006222-82.006222V780.014222c0-45.218667-36.787556-82.006222-82.006222-82.006222H727.314667c-45.218667 0-82.006222 36.787556-82.006223 82.006222v24.281778h-159.031111v-263.751111h159.032v26.059555c0 45.218667 36.787556 82.006222 82.006223 82.006223h107.123555c45.218667 0 82.006222-36.787556 82.006222-82.006223V461.151111c0-45.218667-36.787556-82.006222-82.006222-82.006222H727.314667c-45.218667 0-82.006222 36.787556-82.006223 82.006222v22.504h-159.031111v-262.702222h159.032v24.281778c0 45.218667 36.787556 82.006222 82.006223 82.006222h107.123555c45.218667 0 82.006222-36.787556 82.006222-82.006222V139.782222c-0.000889-45.218667-36.788444-82.006222-82.007111-82.006222zM268.508444 522.218667l-64.485333 64.485333c-3.648 3.647111-7.905778 4.192-10.119111 4.192-2.214222 0-6.472-0.544889-10.119111-4.191111l-64.486222-64.485333c-3.647111-3.647111-4.191111-7.904889-4.191111-10.118223 0-2.214222 0.544-6.472 4.191111-10.119111l64.485333-64.485333c3.648-3.647111 7.905778-4.191111 10.12-4.191111 2.213333 0 6.471111 0.544889 10.118222 4.191111l64.486222 64.485333c3.647111 3.647111 4.191111 7.904889 4.191112 10.119111 0 2.212444-0.544 6.470222-4.191112 10.117334z m433.689778 257.795555c0-13.849778 11.267556-25.117333 25.117334-25.117333h107.123555c13.849778 0 25.117333 11.267556 25.117333 25.117333V885.466667c0 13.849778-11.267556 25.117333-25.117333 25.117333H727.314667c-13.849778 0-25.117333-11.267556-25.117334-25.117333V780.014222z m0-318.863111c0-13.849778 11.267556-25.117333 25.117334-25.117333h107.123555c13.849778 0 25.117333 11.267556 25.117333 25.117333v105.452445c0 13.849778-11.267556 25.117333-25.117333 25.117333H727.314667c-13.849778 0-25.117333-11.267556-25.117334-25.117333V461.151111zM859.555556 245.234667c0 13.849778-11.267556 25.117333-25.117334 25.117333H727.314667c-13.849778 0-25.117333-11.267556-25.117334-25.117333V139.782222c0-13.849778 11.267556-25.117333 25.117334-25.117333h107.123555c13.849778 0 25.117333 11.267556 25.117334 25.117333v105.452445z" p-id="9033" fill="#ffffff"></path></svg>