<?xml version="1.0" standalone="no"?><!DOCTYPE svg PUBLIC "-//W3C//DTD SVG 1.1//EN" "http://www.w3.org/Graphics/SVG/1.1/DTD/svg11.dtd"><svg t="1542306668877" class="icon" style="" viewBox="0 0 1024 1024" version="1.1" xmlns="http://www.w3.org/2000/svg" p-id="1838" xmlns:xlink="http://www.w3.org/1999/xlink" width="128" height="128"><defs><style type="text/css"></style></defs><path d="M63.6 960.4v-64.1h390c-92.4-106.8-261.9-327.8-261.9-512.5C191.7 207 335.1 63.6 512 63.6S832.3 207 832.3 383.9c0 179.1-171 404.2-263.1 512.5h391.2v64.1H63.6z m704.7-576.5c0-141.5-114.7-256.3-256.2-256.3S255.8 242.3 255.8 383.9c0 232.2 256.3 448.4 256.3 448.4s256.2-254.5 256.2-448.4z m-384.4 0c0-70.8 57.4-128.1 128.1-128.1 70.8 0 128.1 57.4 128.1 128.1S582.8 512 512 512s-128.1-57.4-128.1-128.1z m192.2 0c0-35.4-28.7-64.1-64.1-64.1-35.4 0-64.1 28.7-64.1 64.1S476.6 448 512 448c35.4-0.1 64.1-28.7 64.1-64.1z" p-id="1839" fill="#ffffff"></path></svg>