<?xml version="1.0" standalone="no"?><!DOCTYPE svg PUBLIC "-//W3C//DTD SVG 1.1//EN" "http://www.w3.org/Graphics/SVG/1.1/DTD/svg11.dtd"><svg t="1536498738828" class="icon" style="" viewBox="0 0 1024 1024" version="1.1" xmlns="http://www.w3.org/2000/svg" p-id="4766" xmlns:xlink="http://www.w3.org/1999/xlink" width="128" height="128"><defs><style type="text/css"></style></defs><path d="M872.1 192h-90.6v-82.5c0-25.2-20.4-45.5-45.5-45.5-25.2 0-45.5 20.4-45.5 45.5V192h-357v-82.5c0-25.2-20.4-45.5-45.5-45.5-25.2 0-45.5 20.4-45.5 45.5V192h-90.6c-48.6 0-87.9 39.3-87.9 87.9V512h64v-64h768v424.1c0 13.2-10.7 23.9-23.9 23.9H151.9c-13.2 0-23.9-10.7-23.9-23.9V704H64v168.1c0 48.5 39.3 87.9 87.9 87.9h720.2c48.6 0 87.9-39.3 87.9-87.9V279.9c0-48.5-39.3-87.9-87.9-87.9zM128 384V279.9c0-13.2 10.7-23.9 23.9-23.9h720.2c13.2 0 23.9 10.7 23.9 23.9V384H128z" p-id="4767" fill="#2c3e50"></path><path d="M432.8 770.3l-90.5-90.5c-12.5-12.5-32.8-12.5-45.3 0s-12.5 32.8 0 45.3l113.1 113.1c12.5 12.5 32.8 12.5 45.3 0l223.7-223.7-45.3-45.3-201 201.1z" p-id="4768" fill="#ffffff"></path><path d="M704.3 544m-32 0a32 32 0 1 0 64 0 32 32 0 1 0-64 0Z" p-id="4769" fill="#ffffff"></path><path d="M96 608m-32 0a32 32 0 1 0 64 0 32 32 0 1 0-64 0Z" p-id="4770" fill="#2c3e50"></path></svg>