<?xml version="1.0" standalone="no"?><!DOCTYPE svg PUBLIC "-//W3C//DTD SVG 1.1//EN" "http://www.w3.org/Graphics/SVG/1.1/DTD/svg11.dtd"><svg t="1536499187598" class="icon" style="" viewBox="0 0 1024 1024" version="1.1" xmlns="http://www.w3.org/2000/svg" p-id="9947" xmlns:xlink="http://www.w3.org/1999/xlink" width="128" height="128"><defs><style type="text/css"></style></defs><path d="M825.778 402.31c-19.76 0-18.562 2.123-18.562-16.987 0-35.565 0.598-31.318 0-66.884-1.796-71.131-31.737-132.176-88.625-181.543C624.577 55.149 488.047 37.63 373.675 93.9c-98.206 48.305-150.303 125.275-154.494 227.193-1.197 32.912 0 27.073 0 59.983 0 23.887 2.994 20.172-22.755 20.703-40.72 0.53-69.462 26.01-69.462 62.637 0 144.916 0.598 289.831-0.599 435.278 0 37.688 35.33 64.76 71.259 64.23 103.594-1.061 207.788-0.531 311.383-0.531h313.18c43.115 0 70.66-24.95 70.66-63.7v-430.5c0-5.839 0-12.209-1.197-18.048-5.99-28.664-32.936-48.835-65.872-48.835z m-549.11-74.317c0.598-89.71 59.881-168.272 150.9-200.122 143.117-49.897 302.999 35.565 320.964 173.05 5.988 44.59 1.797 49.897 2.396 95.018 0 7.43-5.989 6.37-10.779 6.37H291.637c-14.97 0-14.97 0-14.97-13.27v-61.046z m554.5 559.492c0 10.617-9.581 19.64-21.557 19.64H209.6c-11.977 0-21.557-9.023-21.557-19.64V481.402c0-10.617 9.581-19.64 21.557-19.64h600.01c11.976 0 21.557 9.024 21.557 19.64l0.001 406.083z" p-id="9948" fill="#2c3e50"></path><path d="M521.815 526.523c-35.035-3.185-67.416 16.456-79.624 48.305-12.74 32.912-2.654 71.131 24.418 90.771 9.555 6.901 13.27 15.394 13.27 26.01v57.86c1.062 18.58-2.123 40.343 1.593 62.107 2.654 14.863 15.393 25.48 30.788 26.01 14.863 0.531 26.541-9.024 30.257-24.418 1.061-4.778 1.592-9.554 1.592-13.801v-101.92c0-12.74 3.716-22.825 14.864-30.788 25.48-18.579 35.035-45.65 29.195-77.5-5.84-33.44-34.504-59.982-66.353-62.636z" p-id="9949" fill="#2c3e50"></path></svg>