<?xml version="1.0" standalone="no"?><!DOCTYPE svg PUBLIC "-//W3C//DTD SVG 1.1//EN" "http://www.w3.org/Graphics/SVG/1.1/DTD/svg11.dtd"><svg t="1542004221172" class="icon" style="" viewBox="0 0 1024 1024" version="1.1" xmlns="http://www.w3.org/2000/svg" p-id="7736" xmlns:xlink="http://www.w3.org/1999/xlink" width="128" height="128"><defs><style type="text/css"></style></defs><path d="M913.904 128.09H108.05c-38.793 0-70.352 31.56-70.352 70.352v626.775c0 38.792 31.56 70.352 70.352 70.352h805.854c38.792 0 70.352-31.56 70.352-70.352V198.442c0-38.793-31.56-70.353-70.352-70.353zM108.05 179.254h805.854c10.58 0 19.186 8.607 19.186 19.187V519.5L696.596 283.004c-27.432-27.43-72.062-27.43-99.494 0l-151.2 151.2-53.064-52.707c-27.43-27.431-72.063-27.431-99.494 0l-204.48 204.48V198.443c0-10.58 8.607-19.187 19.187-19.187z m805.854 665.149H108.05c-10.58 0-19.187-8.607-19.187-19.187v-166.88l240.66-240.661c7.48-7.483 19.654-7.482 27.195 0.061l322.307 320.137a25.501 25.501 0 0 0 18.028 7.433c6.576 0 13.151-2.52 18.151-7.554 9.957-10.025 9.903-26.223-0.122-36.18L482.203 470.262l151.078-151.077c7.48-7.48 19.653-7.483 27.135 0l272.676 272.675v233.358c-0.001 10.58-8.609 19.187-19.188 19.187z" p-id="7737" fill="#ffffff"></path></svg>