<?xml version="1.0" standalone="no"?><!DOCTYPE svg PUBLIC "-//W3C//DTD SVG 1.1//EN" "http://www.w3.org/Graphics/SVG/1.1/DTD/svg11.dtd"><svg t="1542003572738" class="icon" style="" viewBox="0 0 1024 1024" version="1.1" xmlns="http://www.w3.org/2000/svg" p-id="1882" xmlns:xlink="http://www.w3.org/1999/xlink" width="128" height="128"><defs><style type="text/css"></style></defs><path d="M964.81507555 878.19377778h-902.81528888c-31.16373333 0-56.42581333-25.26094222-56.42581334-56.42467556V652.48938667c0.00568889-15.57959111 12.63502222-28.20664889 28.21233778-28.21347556 0-1.33347555-0.58026667-2.47125333-0.75776-3.75352889 48.97905778-12.31530667 85.39818667-56.29155555 85.39818667-109.09127111 0-52.81336889-36.41799111-96.78392889-85.39818667-109.09923556 0.17863111-1.28227555 0.75776-2.42688 0.75776-3.75466666-15.57845333 0-28.21233778-12.63160889-28.21233778-28.21233778V201.07946667c0-31.16373333 25.26094222-56.42012445 56.42581334-56.42012445h902.81528888c31.16373333 0 56.42581333 25.25525333 56.42581334 56.42012445v169.28312888c0 15.58186667-12.62705778 28.21461333-28.21233778 28.21461334 0 1.32778667 0.58026667 2.47125333 0.76344889 3.75352889-48.98474667 12.31530667-85.40387555 56.29269333-85.40387555 109.09923555 0 52.79857778 36.41799111 96.77596445 85.39818666 109.09127112-0.17749333 1.28227555-0.75776 2.42119111-0.75776 3.75466666 15.57959111 0 28.20551111 12.63388445 28.21233778 28.21233778v169.27971556c0 31.16373333-25.26208 56.42581333-56.42581334 56.42581333z m0-207.32472889c-65.70211555-23.26641778-112.85390222-85.77251555-112.85390222-159.43793778 0-73.67338667 47.15064889-136.18062222 112.85390222-159.44817778V229.29294222c0-15.57959111-12.63502222-28.21233778-28.21347555-28.21233777H90.21212445c-15.57959111 0-28.21233778 12.63274667-28.21233778 28.21233777V351.98293333c65.70097778 23.26641778 112.85276445 85.77251555 112.85276444 159.44704 0 73.66542222-47.14951111 136.17265778-112.85276444 159.43793778v122.69226667c0 15.57959111 12.63274667 28.20778667 28.21233778 28.20778667h846.38947555c15.57959111 0 28.21347555-12.62933333 28.21347555-28.20778667V670.86904889z m-324.45098666-46.592h-98.74204444v70.53653333c0 7.78695111-6.31239111 14.10161778-14.10503112 14.10161778H499.3024c-7.79377778 0-14.10730667-6.31466667-14.10730667-14.10161778V624.27591111h-98.74773333c-7.79150222 0-14.10503111-6.30784-14.10503111-14.10048v-28.21916444c0-7.78695111 6.31352889-14.10048 14.10616889-14.10048h98.74773333V511.43111111h-98.74773333c-7.79377778 0-14.10616889-6.32035555-14.10616889-14.10730666v-28.21347556c0-7.79264 6.31352889-14.11185778 14.10616889-14.11185778h77.74549333l-86.89322666-95.03630222c-4.95843555-5.42264889-4.95843555-14.21312 0-19.63463111l17.95413333-19.64600889c4.95388445-5.41582222 12.99114667-5.41582222 17.95754667 0l99.44746666 108.77610666 100.62051556-110.05155555c4.99825778-5.47271111 13.09809778-5.47271111 18.09635555 0l18.09521778 19.78481778c5.00280889 5.47271111 5.00280889 14.33486222 0 19.80188444l-87.77955555 96.00682667h78.67164444c7.79832889 0 14.10616889 6.32035555 14.10616889 14.11185778V497.32266667c0 7.78695111-6.30784 14.10730667-14.10616889 14.10730666h-98.74204444v56.42467556h98.74204444c7.79832889 0 14.10616889 6.31466667 14.10616889 14.10048v28.21916444c-0.00113778 7.79377778-6.31466667 14.10161778-14.10844445 14.10161778z m0 0" fill="#ffffff" p-id="1883"></path></svg>