<?xml version="1.0" standalone="no"?><!DOCTYPE svg PUBLIC "-//W3C//DTD SVG 1.1//EN" "http://www.w3.org/Graphics/SVG/1.1/DTD/svg11.dtd"><svg t="1555923131825" class="icon" style="" viewBox="0 0 1024 1024" version="1.1" xmlns="http://www.w3.org/2000/svg" p-id="2587" xmlns:xlink="http://www.w3.org/1999/xlink" width="64" height="64"><defs><style type="text/css"></style></defs><path d="M512 93.090909c230.981818 0 418.909091 187.927273 418.909091 418.909091s-187.927273 418.909091-418.909091 418.909091S93.090909 742.981818 93.090909 512 281.018182 93.090909 512 93.090909m0 907.636364c269.917091 0 488.727273-218.810182 488.727273-488.727273S781.917091 23.272727 512 23.272727 23.272727 242.082909 23.272727 512s218.810182 488.727273 488.727273 488.727273m-35.467636-348.392728a34.932364 34.932364 0 0 0 49.384727 1.373091l196.305454-186.181818a34.909091 34.909091 0 0 0-48.058181-50.664727l-170.938182 162.117818-152.040727-160.814545A34.792727 34.792727 0 0 0 325.818182 407.272727a34.909091 34.909091 0 0 0-25.344 58.903273l176.058182 186.181818z" fill="#2c3e50" p-id="2588"></path></svg>