<?xml version="1.0" standalone="no"?><!DOCTYPE svg PUBLIC "-//W3C//DTD SVG 1.1//EN" "http://www.w3.org/Graphics/SVG/1.1/DTD/svg11.dtd"><svg t="1536498073028" class="icon" style="" viewBox="0 0 1024 1024" version="1.1" xmlns="http://www.w3.org/2000/svg" p-id="3694" xmlns:xlink="http://www.w3.org/1999/xlink" width="128" height="128"><defs><style type="text/css"></style></defs><path d="M494.043838 676.149245c76.612957-44.890404 128.087287-128.087287 128.087287-223.3547 0-142.851242-115.817243-258.768242-258.768242-258.768242S104.694398 309.843546 104.694398 452.794545c0 95.267414 51.47433 178.464296 128.087287 223.3547C98.409742 719.842572 1.246956 846.134243 1.246956 995.070628l0 28.929372 724.431369 0 0-28.929372C725.678324 846.134243 628.515538 719.842572 494.043838 676.149245zM168.538529 452.794545c0-52.072869 20.25056-100.953531 57.060692-137.763663 36.810132-36.810132 85.79055-57.060692 137.763663-57.060692s100.953531 20.25056 137.763663 57.060692c36.810132 36.810132 57.060692 85.79055 57.060692 137.763663S538.036434 553.748076 501.226303 590.558208c-36.810132 36.810132-85.79055 57.060692-137.763663 57.060692S262.509109 627.368339 225.698977 590.558208C188.888846 553.748076 168.538529 504.867414 168.538529 452.794545zM659.639552 960.155869 67.285728 960.155869c3.09245-24.340575 9.476863-47.982854 19.053483-70.727326 13.666634-32.321091 33.218899-61.350219 58.257769-86.289333 24.939113-24.939113 53.968242-44.491378 86.289333-58.257769 33.418412-14.165416 69.031466-21.347881 105.642085-21.347881L390.297126 723.533561c36.710375 0 72.223673 7.182465 105.642085 21.347881 32.321091 13.666634 61.350219 33.218899 86.289333 58.257769 24.939113 24.939113 44.491378 53.968242 58.257769 86.289333C650.162689 912.173015 656.547102 935.815295 659.639552 960.155869zM791.118558 545.967073c76.612957-44.890404 128.087287-128.087287 128.087287-223.3547C919.305602 179.661374 803.388602 63.844131 660.53736 63.844131c-75.615392 0-143.74905 32.520604-191.033609 84.194447 6.583926 2.294398 13.068095 4.78831 19.552265 7.481734 14.564442 6.1849 28.530346 13.267608 41.897711 21.447638 35.712811-31.922065 81.30151-49.279688 129.583634-49.279688 52.072869 0 100.953531 20.25056 137.763663 57.060692 36.810132 36.810132 57.060692 85.79055 57.060692 137.763663S835.111154 423.565904 798.301023 460.376035c-32.221335 32.221335-73.819776 51.7736-118.610424 56.162884-5.386849 26.634973-14.06566 52.471895-25.836922 76.912226l33.617925 0c36.710375 0 72.223673 7.182465 105.642085 21.347881 32.321091 13.666634 61.350219 33.218899 86.289333 58.257769 24.939113 24.939113 44.491378 53.968242 58.257769 86.289333 9.57662 22.744472 15.961033 46.386751 19.053483 70.727326L753.909401 830.073453c9.377107 20.649586 16.958597 41.997467 22.744472 63.844131L1022.753044 893.917584l0-28.929372C1022.753044 715.95207 925.590258 589.660399 791.118558 545.967073z" p-id="3695" fill="#2c3e50"></path></svg>