<?xml version="1.0" standalone="no"?><!DOCTYPE svg PUBLIC "-//W3C//DTD SVG 1.1//EN" "http://www.w3.org/Graphics/SVG/1.1/DTD/svg11.dtd"><svg t="1542004297289" class="icon" style="" viewBox="0 0 1024 1024" version="1.1" xmlns="http://www.w3.org/2000/svg" p-id="8769" xmlns:xlink="http://www.w3.org/1999/xlink" width="128" height="128"><defs><style type="text/css"></style></defs><path d="M871.41751 180.892562c-8.395645-2.384363-32.205693-17.143907-53.278761-30.106782-34.237439-21.291355-75.560803-46.343959-111.393415-59.088548l-12.811754-61.607241v-0.13433a22.584284 22.584284 0 0 0-4.483274-8.966549c-0.705234-0.705234-1.326512-1.192182-2.031746-1.813459a18.974157 18.974157 0 0 0-6.38069-4.197823 13.433032 13.433032 0 0 0-1.679129-0.973895c-0.335826-0.151122-0.638069 0-1.04106-0.151121a6.598977 6.598977 0 0 1-1.679129-0.554113c-160.188902-29.200052-322.493506-1.326512-329.210023 0a6.716516 6.716516 0 0 1-1.679129 0.554113c-0.352617 0.151122-0.772399 0-1.125016 0.151121a6.061656 6.061656 0 0 0-1.679129 0.973895 18.017054 18.017054 0 0 0-6.296733 4.197823 16.573003 16.573003 0 0 0-2.031746 1.813459 21.828676 21.828676 0 0 0-4.55044 8.966549v0.13433l-14.574839 69.868556c-35.261708 11.905024-75.678342 33.582579-109.294504 51.952249-21.828676 12.039355-44.66483 24.296996-53.631378 26.866064C136.88255 183.041847 89.195288 196.071888 5.322797 988.503214a21.627181 21.627181 0 0 0 21.49285 23.877214h131.912371a21.593598 21.593598 0 0 0 21.207399-17.429359l57.762035-298.263676-10.964712 274.655123a21.643972 21.643972 0 0 0 8.546767 18.201758c5.944116 4.483274 50.121999 34.455726 165.511741 34.455726 35.916568 0 78.700774-2.938476 129.393677-10.427391 193.721107-28.713105 233.499672-20.938738 233.919454-20.938738a21.106651 21.106651 0 0 0 19.813721-3.005641 21.576807 21.576807 0 0 0 8.748262-18.067427l-9.168044-287.265381 60.566182 312.687393a21.560016 21.560016 0 0 0 21.207398 17.429359h131.912371a21.74472 21.74472 0 0 0 21.49285-23.877214c-84.023613-792.414535-131.559753-805.444576-147.259609-809.642398zM664.24658 99.320478l-99.841007 92.620752-17.916306-12.610258 112.955004-103.333596z m-39.694608-49.920504l-112.50164 103.1321-112.098649-102.645153c50.205956-5.524334 135.891906-11.048669 224.600289-0.486947zM364.589227 75.997376l113.005379 103.333596-17.96668 12.610258-99.841007-92.637544zM50.860774 969.042109c2.518693-22.970484 5.037387-46.075298 7.707202-69.112947h95.84468l-13.433031 69.112947H50.860774z m219.562902-9.319165l21.828676-546.388561a21.408894 21.408894 0 0 0-19.00774-22.26525 21.711137 21.711137 0 0 0-23.742883 17.295028l-86.743802 448.32743H63.538198C99.102149 550.871835 143.565483 257.444051 168.634879 218.924833c13.80244-4.835891 33.817657-15.75023 58.316148-29.065722 35.077004-19.108487 78.12987-42.431589 110.822511-51.95225l105.298177 97.590974a21.61039 21.61039 0 0 0 14.709169 5.742622 21.946215 21.946215 0 0 0 12.391972-3.845206l20.149547-14.205431v751.662076c-132.248196 14.97783-197.784599-5.289256-219.898727-15.128952z m504.108094-549.192707a22.114128 22.114128 0 0 0-23.658927-17.362193 21.828676 21.828676 0 0 0-19.226027 22.13092l17.043159 533.442476c-31.366129-0.638069-93.678604 3.005641-215.079627 20.653286V223.173029l20.233504 14.289387a21.543224 21.543224 0 0 0 27.101141-1.897415l111.326249-103.199266c31.298964 11.132625 70.523416 35.009839 103.199266 55.243343 28.545192 17.647645 46.629411 28.629149 59.928112 33.397875 24.851108 38.28414 69.348026 330.452578 104.811229 635.667847h-99.35406z m108.589269 560.711531l-13.785649-71.312606h95.979011c2.73698 23.810049 5.322839 47.620097 7.908698 71.279024h-90.10206z" p-id="8770" fill="#ffffff"></path><path d="M562.8104 863.777515a23.373475 23.373475 0 0 0-6.095238 15.548735 22.198085 22.198085 0 0 0 6.095238 15.11216 23.96117 23.96117 0 0 0 15.548734 6.51502 22.046963 22.046963 0 0 0 15.615899-6.51502 22.449954 22.449954 0 0 0 6.028073-15.11216 22.164502 22.164502 0 0 0-6.431063-15.548735 23.17198 23.17198 0 0 0-30.761643 0zM562.8104 734.14876a23.507805 23.507805 0 0 0-6.095238 15.548734 21.593598 21.593598 0 0 0 6.51502 15.112161 20.485373 20.485373 0 0 0 15.112161 6.582185 23.69251 23.69251 0 0 0 15.615899-6.582185 22.349206 22.349206 0 0 0 6.028073-15.112161 22.584284 22.584284 0 0 0-6.431064-15.548734 23.339892 23.339892 0 0 0-30.744851 0zM562.8104 604.469631a21.882409 21.882409 0 1 0 31.147842 30.744851 23.591762 23.591762 0 0 0 6.028073-15.11216 22.533911 22.533911 0 0 0-6.431064-15.548734 22.869736 22.869736 0 0 0-30.744851-0.083957zM563.230182 474.807294a20.83799 20.83799 0 0 0-6.51502 15.615899 21.61039 21.61039 0 0 0 6.095238 15.112161 22.046963 22.046963 0 0 0 31.147842 0 22.164502 22.164502 0 0 0-0.419782-30.812017c-8.261314-8.043028-23.30631-7.220254-30.308278 0.083957zM563.230182 345.212121a20.720451 20.720451 0 0 0-6.51502 15.615899 20.300669 20.300669 0 0 0 6.51502 15.112161 22.046963 22.046963 0 0 0 15.112161 6.447855 21.291355 21.291355 0 0 0 21.627181-21.560016 21.711137 21.711137 0 0 0-6.431064-15.615899c-8.261314-7.774367-22.903319-7.354585-30.308278 0z" p-id="8771" fill="#ffffff"></path></svg>