<?xml version="1.0" standalone="no"?><!DOCTYPE svg PUBLIC "-//W3C//DTD SVG 1.1//EN" "http://www.w3.org/Graphics/SVG/1.1/DTD/svg11.dtd"><svg t="1536213477830" class="icon" style="" viewBox="0 0 1024 1024" version="1.1" xmlns="http://www.w3.org/2000/svg" p-id="2135" xmlns:xlink="http://www.w3.org/1999/xlink" width="128" height="128"><defs><style type="text/css"></style></defs><path d="M958.577778 463.644444l-426.666667-398.222222a28.444444 28.444444 0 0 0-40.391111 0l-426.666667 398.222222a28.444444 28.444444 0 0 0 40.391111 40.391112L512 125.724444l406.755556 378.311112a28.444444 28.444444 0 0 0 40.391111-40.391112zM853.333333 540.444444a28.444444 28.444444 0 0 0-28.444444 28.444445v341.333333h-170.666667v-256a28.444444 28.444444 0 0 0-28.444444-28.444444H398.222222a28.444444 28.444444 0 0 0-28.444444 28.444444V910.222222h-170.666667v-341.333333a28.444444 28.444444 0 0 0-56.888889 0v369.777778a28.444444 28.444444 0 0 0 28.444445 28.444444h227.555555a28.444444 28.444444 0 0 0 28.444445-28.444444V682.666667h170.666666v256a28.444444 28.444444 0 0 0 28.444445 28.444444h227.555555a28.444444 28.444444 0 0 0 28.444445-28.444444V568.888889a28.444444 28.444444 0 0 0-28.444445-28.444445zM654.222222 113.777778H796.444444v142.222222a28.444444 28.444444 0 0 0 56.888889 0v-170.666667a28.444444 28.444444 0 0 0-28.444444-28.444444h-170.666667a28.444444 28.444444 0 0 0 0 56.888889z" fill="#ffffff" p-id="2136"></path></svg>