<?xml version="1.0" standalone="no"?><!DOCTYPE svg PUBLIC "-//W3C//DTD SVG 1.1//EN" "http://www.w3.org/Graphics/SVG/1.1/DTD/svg11.dtd"><svg t="1542004356821" class="icon" style="" viewBox="0 0 1043 1024" version="1.1" xmlns="http://www.w3.org/2000/svg" p-id="9773" xmlns:xlink="http://www.w3.org/1999/xlink" width="130.375" height="128"><defs><style type="text/css"></style></defs><path d="M801.783064 733.446186l-559.7449-0.231788c-18.702796-0.015753-33.861264-15.192224-33.861264-33.928775 0-18.705046 15.192224-33.863514 33.892769-33.863514l559.74715 0.231787c18.702796 0.013502 33.863514 15.192224 33.863515 33.928775 0 18.702796-15.194474 33.863514-33.89727 33.863515" fill="#ffffff" p-id="9774"></path><path d="M1043.809976 984.004237l-0.004501-908.088125-0.006751-37.308825h-0.117019C1043.46792 17.251309 1026.106343 0 1004.696357 0h-171.779473c-21.540508 0-39.003351 17.462844-39.003352 39.005602 0 21.542758 17.462844 39.007852 39.003352 39.007852h132.897641v817.117061a153.292712 153.292712 0 0 0-81.688302-23.489325c-48.803697 0-92.355039 22.787211-120.66465 58.252986-28.30736-35.465775-71.863202-58.252986-120.662398-58.252986-48.862207 0-92.463057 22.84572-120.765916 58.388008-28.305109-35.542288-71.905959-58.388008-120.768166-58.388008-48.801447 0-92.355039 22.787211-120.662399 58.252986-28.30736-35.465775-71.860952-58.252986-120.662399-58.252986a153.267958 153.267958 0 0 0-81.870582 23.604093l-0.006751-817.231829h132.814378c21.542758 0 39.007852-17.465094 39.007852-39.007852S232.420098 0 210.87734 0H39.100117C17.692381 0 0.330804 17.251309 0.117019 38.607287H0.074262v944.865864c-0.020253 0.486079-0.074262 0.963157-0.074262 1.455987 0 21.572013 17.485347 39.05736 39.05736 39.05736 21.569762 0 39.05736-17.487598 39.05736-39.05736 0-0.312801-0.038256-0.6121-0.047257-0.924901v-17.798148c15.156218-28.962216 45.477656-48.733936 80.434848-48.733936 43.162029 0 79.260157 30.136908 88.466406 70.510732h0.076512c2.358384 15.703057 15.867334 27.75602 32.225248 27.75602 16.360164 0 29.869114-12.052963 32.227498-27.75602h0.074262c9.206249-40.373825 45.306628-70.510732 88.468656-70.510732 42.860479 0 78.742573 29.72284 88.257122 69.671345 2.074838 15.914592 15.655799 28.219595 32.137484 28.219596 16.483934 0 30.062645-12.305004 32.137483-28.219596 9.514549-39.948505 45.396642-69.671345 88.257122-69.671345 43.162029 0 79.262407 30.136908 88.468656 70.510732h0.528836c2.203109 16.092371 15.96635 28.505392 32.661819 28.505392 16.699969 0 30.463211-12.413021 32.66632-28.505392h0.24529c9.2085-40.373825 45.308878-70.510732 88.468656-70.510732 36.163389 0 67.357969 21.160196 81.942594 51.76968v14.231318c-0.018003 0.48833-0.074262 0.965407-0.074262 1.455987 0 21.572013 17.487598 39.05736 39.05736 39.05736 21.572013 0 39.05736-17.487598 39.05736-39.05736 0.00225-0.312801-0.036006-0.61435-0.042757-0.924901" fill="#ffffff" p-id="9775"></path><path d="M448.556544 168.887752h-146.744146v366.863741h146.744146V168.887752z m146.744146 0h-73.370948v366.863741h73.373198l-0.00225-366.863741z m146.744146 0h-73.373198v366.863741h73.373198V168.887752z m-513.605637 0H155.066001v366.863741h73.373198V168.887752z m660.352033 0h-73.373198v366.863741h73.373198V168.887752z" fill="#ffffff" p-id="9776"></path></svg>