<?xml version="1.0" standalone="no"?><!DOCTYPE svg PUBLIC "-//W3C//DTD SVG 1.1//EN" "http://www.w3.org/Graphics/SVG/1.1/DTD/svg11.dtd"><svg t="1536501500141" class="icon" style="" viewBox="0 0 1024 1024" version="1.1" xmlns="http://www.w3.org/2000/svg" p-id="11530" xmlns:xlink="http://www.w3.org/1999/xlink" width="128" height="128"><defs><style type="text/css"></style></defs><path d="M705.52064 698.7776l79.89248-71.79264 127.0784-114.1504L785.408 398.67904l-79.89248-71.78752c-18.23232-16.41472-47.20128-3.38944-47.20128 21.31456v107.81696a45.57824 45.57824 0 0 0-4.85888-0.26112H348.4416c-31.17568 0-56.68352 25.69216-56.68352 57.08288s25.50784 57.06752 56.68352 57.06752h304.9216c1.67936 0 3.28704-0.08192 4.87424-0.26112v107.81696c0.08192 24.704 28.9536 37.72416 47.2832 21.30944z" p-id="11531" fill="#ffffff"></path><path d="M167.04512 797.952V227.5328c0-31.39072 25.50784-57.07264 56.6784-57.07264h567.78752v-26.75712c0-31.39584-25.51296-30.4128-56.6784-30.4128H168.192c-31.17568 0-56.6784 25.68704-56.6784 57.08288v683.04384c0 31.39584 25.51296 57.09312 56.6784 57.09312h566.63552c31.17056 0 56.6784 4.36736 56.6784-27.0336v-28.34944H223.7184c-31.17568-0.09216-56.67328-25.78432-56.67328-57.17504z" p-id="11532" fill="#2c3e50"></path></svg>