<?xml version="1.0" standalone="no"?><!DOCTYPE svg PUBLIC "-//W3C//DTD SVG 1.1//EN" "http://www.w3.org/Graphics/SVG/1.1/DTD/svg11.dtd"><svg t="1536500875571" class="icon" style="" viewBox="0 0 1024 1024" version="1.1" xmlns="http://www.w3.org/2000/svg" p-id="10736" xmlns:xlink="http://www.w3.org/1999/xlink" width="128" height="128"><defs><style type="text/css"></style></defs><path d="M784.228 961.143h-544.457c-69.188 0-125.417-65.623-125.417-146.332v-44.572c0-17.005 11.795-30.788 26.4-30.788s26.4 13.783 26.4 30.857v44.503c0 46.628 32.572 84.685 72.617 84.685h544.595c39.977 0 72.617-37.988 72.617-84.685v-201.737c0-17.005 11.795-30.788 26.4-30.788 14.537 0 26.332 13.715 26.332 30.857v201.6c0.068 80.708-56.228 146.4-125.348 146.4zM140.755 616.365c-14.605 0-26.4-13.715-26.4-30.788v-181.028c0-17.005 11.795-30.72 26.4-30.72s26.4 13.715 26.4 30.788v181.028c0 16.937-11.795 30.72-26.4 30.72zM883.383 407.772c-14.605 0-26.4-13.715-26.4-30.857v-197.485c0-46.628-32.64-84.685-72.685-84.685h-544.525c-40.045 0-72.685 37.988-72.685 84.685v40.388c0 17.005-11.725 30.72-26.332 30.72s-26.4-13.715-26.4-30.72v-40.388c-0.068-80.64 56.16-146.332 125.417-146.332h544.595c69.12 0 125.485 65.623 125.485 146.332v197.485c0 17.005-11.932 30.857-26.468 30.857zM213.852 342.972h-154.56c-14.605 0-26.4-13.715-26.4-30.788 0-17.005 11.795-30.788 26.4-30.788h154.56c14.605 0 26.4 13.715 26.4 30.857 0 17.005-11.795 30.72-26.4 30.72zM213.852 708.8h-154.56c-14.605 0-26.4-13.715-26.4-30.72 0-17.075 11.795-30.857 26.4-30.857h154.56c14.605 0 26.4 13.783 26.4 30.857 0 16.937-11.795 30.788-26.4 30.788z" p-id="10737" fill="#ffffff"></path><path d="M679.52 342.972h-315.292c-14.605 0-26.4-13.715-26.4-30.788 0-17.005 11.795-30.788 26.4-30.788h315.36c14.605 0 26.4 13.715 26.4 30.857 0 17.005-11.863 30.72-26.468 30.72zM679.52 525.92h-315.292c-14.605 0-26.4-13.715-26.4-30.788 0-17.005 11.795-30.788 26.4-30.788h315.36c14.605 0 26.4 13.715 26.4 30.788 0 17.005-11.863 30.788-26.468 30.788zM679.52 708.8h-315.292c-14.605 0-26.4-13.715-26.4-30.72 0-17.075 11.795-30.857 26.4-30.857h315.36c14.605 0 26.4 13.783 26.4 30.857 0 16.937-11.863 30.788-26.468 30.788zM887.085 618.972c-57.6 0-104.503-54.652-104.503-121.92 0-67.2 46.903-121.988 104.503-121.988 57.668 0 104.572 54.72 104.572 122.057 0 67.2-46.903 121.92-104.572 121.92zM887.085 436.708c-28.525 0-51.635 27.085-51.635 60.412s23.108 60.343 51.635 60.343c28.595 0 51.772-27.017 51.772-60.343s-23.177-60.412-51.772-60.412z" p-id="10738" fill="#ffffff"></path></svg>