<?xml version="1.0" standalone="no"?><!DOCTYPE svg PUBLIC "-//W3C//DTD SVG 1.1//EN" "http://www.w3.org/Graphics/SVG/1.1/DTD/svg11.dtd"><svg t="1542003780131" class="icon" style="" viewBox="0 0 1024 1024" version="1.1" xmlns="http://www.w3.org/2000/svg" p-id="2950" xmlns:xlink="http://www.w3.org/1999/xlink" width="128" height="128"><defs><style type="text/css"></style></defs><path d="M939.3 866.5H86.7c-11 0-20-9-20-20v-718c0-11 9-20 20-20h852.5c11 0 20 9 20 20v718c0.1 11-8.9 20-19.9 20z m-832.6-40h812.5v-678H106.7v678z" p-id="2951" fill="#ffffff"></path><path d="M935.9 507.5H99.6c-11 0-20-9-20-20s9-20 20-20H936c11 0 20 9 20 20s-9 20-20.1 20z" p-id="2952" fill="#ffffff"></path><path d="M366.2 851.5c-11 0-20-9-20-20v-703c0-11 9-20 20-20s20 9 20 20v703c0 11-9 20-20 20zM659.8 851.5c-11 0-20-9-20-20v-703c0-11 9-20 20-20s20 9 20 20v703c0 11-8.9 20-20 20zM87.2 929.5c-11 0-20-9-20-20v-63c0-11 9-20 20-20s20 9 20 20v63c0 11-8.9 20-20 20zM938.7 929.5c-11 0-20-9-20-20v-63c0-11 9-20 20-20s20 9 20 20v63c0 11-8.9 20-20 20z" p-id="2953" fill="#ffffff"></path><path d="M153.7 701.5c-11 0-20-9-20-20v-55c0-11 9-20 20-20s20 9 20 20v55c0 11-8.9 20-20 20zM425.6 701.5c-11 0-20-9-20-20v-55c0-11 9-20 20-20s20 9 20 20v55c0 11-9 20-20 20zM724.9 701.5c-11 0-20-9-20-20v-55c0-11 9-20 20-20s20 9 20 20v55c0 11-8.9 20-20 20z" p-id="2954" fill="#ffffff"></path></svg>