<?xml version="1.0" standalone="no"?><!DOCTYPE svg PUBLIC "-//W3C//DTD SVG 1.1//EN" "http://www.w3.org/Graphics/SVG/1.1/DTD/svg11.dtd"><svg t="1542003922570" class="icon" style="" viewBox="0 0 1024 1024" version="1.1" xmlns="http://www.w3.org/2000/svg" p-id="4570" xmlns:xlink="http://www.w3.org/1999/xlink" width="128" height="128"><defs><style type="text/css"></style></defs><path d="M862.018285 993.970674h-699.683284c-54.052786 0-99.096774-45.043988-99.096774-99.096774v-642.627566c0-54.052786 45.043988-99.096774 99.096774-99.096774h129.1261v60.058651h-129.1261c-21.020528 0-39.038123 18.017595-39.038123 39.038123v642.627566c0 21.020528 18.017595 39.038123 39.038123 39.038123h699.683284c21.020528 0 39.038123-18.017595 39.038123-39.038123v-642.627566c0-21.020528-18.017595-39.038123-39.038123-39.038123h-102.099706v-60.058651h102.099706c54.052786 0 99.096774 45.043988 99.096775 99.096774v642.627566c0 57.055718-45.043988 99.096774-99.096775 99.096774z" p-id="4571" fill="#ffffff"></path><path d="M729.889253 303.296188h-441.431085c-27.026393 0-51.049853-21.020528-51.049853-51.049854v-141.13783c0-27.026393 21.020528-51.049853 51.049853-51.049853h117.11437c21.020528-36.035191 60.058651-60.058651 105.102639-60.058651 42.041056 0 81.079179 24.02346 105.102639 60.058651h117.11437c27.026393 0 51.049853 21.020528 51.049853 51.049853v141.13783c-3.002933 30.029326-24.02346 51.049853-54.052786 51.049854z m-438.428152-189.184751v141.13783h441.431085v-141.13783h-144.140763l-15.014663-24.02346c-12.01173-21.020528-36.035191-36.035191-60.058651-36.035191s-48.046921 12.01173-60.058651 36.035191l-15.014662 24.02346h-147.143695zM210.381922 447.43695c0-15.014663 12.01173-24.02346 24.02346-24.02346h549.536657c15.014663 0 24.02346 12.01173 24.02346 24.02346v9.008798c0 15.014663-12.01173 24.02346-24.02346 24.02346h-549.536657c-15.014663 0-24.02346-12.01173-24.02346-24.02346v-9.008798z m0 150.146628c0-15.014663 12.01173-24.02346 24.02346-24.023461h549.536657c15.014663 0 24.02346 12.01173 24.02346 24.023461v9.008797c0 15.014663-12.01173 24.02346-24.02346 24.023461h-549.536657c-15.014663 0-24.02346-12.01173-24.02346-24.023461v-9.008797z m0 150.146627c0-15.014663 12.01173-24.02346 24.02346-24.02346h549.536657c15.014663 0 24.02346 12.01173 24.02346 24.02346v9.008798c0 15.014663-12.01173 24.02346-24.02346 24.02346h-549.536657c-15.014663 0-24.02346-12.01173-24.02346-24.02346v-9.008798z" p-id="4572" fill="#ffffff"></path></svg>