<?xml version="1.0" encoding="utf-8"?>
<!-- Generator: Adobe Illustrator 24.0.3, SVG Export Plug-In . SVG Version: 6.00 Build 0)  -->
<svg version="1.1" id="图层_1" xmlns="http://www.w3.org/2000/svg" xmlns:xlink="http://www.w3.org/1999/xlink" x="0px" y="0px"
	 viewBox="0 0 128 128" style="enable-background:new 0 0 128 128;" xml:space="preserve">
<style type="text/css">
	.st0{fill:#B4D2FC;}
	.st1{fill:#FCE9EA;}
	.st2{fill:#D5E270;}
	.st3{fill:#FEFEFE;}
	.st4{fill:#ED7667;}
	.st5{fill:#F08E83;}
</style>
<path class="st0" d="M64,0C28.7,0,0,28.6,0,64c0,21.8,10.9,41,27.5,52.6c3.1-11,11-19.3,21.6-23.3c-2.1,2.4,0.2,20.3,3.6,17.9l5.6-4
	l5.6-4l-0.4-0.3l-5.3-3.7l-8.2-6.1c-0.1-0.1-0.2-0.2-0.4-0.2c0,0,0,0-0.1,0l-0.2,0.1c0.5-0.2,1.1-0.4,1.6-0.6c0.2,0,0.3-0.1,0.5-0.1
	c1.1-0.3,2.2-0.6,3.3-0.8c0.2,0,0.3-0.1,0.5-0.1c0.6-0.1,1.2-0.2,1.8-0.3c0.4-0.1,0.8-0.1,1.2-0.2c0.2,0,0.3,0,0.5-0.1
	c0.6-0.1,1.2-0.1,1.8-0.2h6.5c0.6,0,1.2,0.1,1.8,0.2c0.2,0,0.4,0,0.5,0.1c0.6,0.1,1.2,0.2,1.8,0.3c0.4,0.1,0.8,0.1,1.2,0.2
	c0.2,0,0.4,0.1,0.5,0.1c0.5,0.1,1.1,0.2,1.6,0.4l0,0c0.5,0.1,1.1,0.3,1.6,0.4c0.2,0.1,0.3,0.1,0.5,0.2c0.4,0.1,0.7,0.2,1.1,0.4
	c0.2,0.1,0.4,0.1,0.5,0.2c-0.1,0-0.1,0-0.2-0.1c0,0,0,0,0,0c-0.1,0-0.3,0.1-0.4,0.2l-8.1,6.1l-5.3,3.7l-0.4,0.3l5.6,4l5.6,4
	c3.4,2.4,5.7-15.7,3.6-18c10.7,4,18.6,12.3,21.7,23.3C117.1,105,128,85.8,128,64C128,28.6,99.3,0,64,0z M64,90.7
	c-16.3,0-29.6-13-30.1-29.1c0,0,0,0-0.1,0c-0.6-11.6,5.4-20.5,13-25.7c0.1-0.1,0.3-0.2,0.4-0.3c0.1-0.1,0.3-0.2,0.4-0.3
	c0.3-0.2,0.5-0.3,0.8-0.5c0.3-0.2,0.5-0.3,0.8-0.5c0.1-0.1,0.2-0.1,0.4-0.2c4.3-2.4,9-3.6,13.1-3.6c0.4,0,0.8,0,1.2,0
	c0.4,0,0.8,0,1.2,0c3.3,0,6.9,0.8,10.5,2.3c3.1,1.3,6,3.1,8.5,5.4c6.1,5.4,10.5,13.4,10,23.4l0,0C93.6,77.7,80.3,90.7,64,90.7z"/>
<path class="st1" d="M59,48.4c-5.8,10.2-15.6,19.2-25.1,13.2C34.4,77.7,47.7,90.7,64,90.7c16.3,0,29.6-13,30.1-29.1
	C86.1,66.5,65.2,59.3,59,48.4z"/>
<path class="st2" d="M68.5,93.2L68.5,93.2L68.5,93.2z M78.8,93.2c2.2,2.2-0.1,20.4-3.6,18l-5.6-4l-5.6-4l-5.6,4l-5.6,4
	c-3.4,2.4-5.7-15.5-3.6-17.9c-10.6,4-18.5,12.3-21.6,23.3C37.8,123.8,50.4,128,64,128c13.6,0,26.2-4.2,36.5-11.4
	C97.4,105.6,89.5,97.2,78.8,93.2z"/>
<path class="st3" d="M64.4,103l5.3-3.7l8.1-6.1c0.2-0.1,0.3-0.2,0.4-0.2l0,0c-0.1,0-0.2-0.1-0.3-0.1c-0.4-0.1-0.7-0.2-1.1-0.4
	c-0.2-0.1-0.3-0.1-0.5-0.2c-0.5-0.2-1.1-0.3-1.6-0.4l0,0c-0.5-0.1-1.1-0.3-1.6-0.4c-0.2,0-0.4-0.1-0.5-0.1c-0.6-0.1-1.2-0.2-1.8-0.3
	c-0.4-0.1-0.8-0.1-1.2-0.2c-0.2,0-0.4,0-0.5-0.1c-0.6-0.1-1.2-0.1-1.8-0.2h-6.5c-0.6,0-1.2,0.1-1.8,0.2c-0.2,0-0.4,0-0.5,0.1
	c-0.4,0.1-0.8,0.1-1.2,0.2c-0.6,0.1-1.2,0.2-1.8,0.3c-0.2,0-0.3,0.1-0.5,0.1c-1.1,0.2-2.2,0.5-3.3,0.8c-0.2,0-0.3,0.1-0.5,0.1
	c-0.4,0.1-0.7,0.2-1.1,0.4c-0.1,0-0.2,0.1-0.3,0.1l0,0c0.1,0,0.2,0.1,0.4,0.2l8.2,6.1l5.3,3.7c0.1,0,0.3,0,0.4,0
	C64.1,103,64.2,103,64.4,103z"/>
<path class="st4" d="M59,48.3c6.2,11,27.1,18.2,35.1,13.2l0,0c0.5-10-3.9-18-10-23.4c-2.5-2.2-5.4-4.1-8.5-5.4
	c-3.5-1.5-7.2-2.3-10.5-2.3c-0.4,0-0.8,0-1.2,0C64.9,34.2,62.8,41.5,59,48.3z"/>
<path class="st5" d="M59,48.2c3.9-6.8,6-14.2,4.9-17.9c-0.4,0-0.8,0-1.2,0c-4.2,0-8.8,1.2-13.1,3.6c-0.1,0.1-0.2,0.1-0.4,0.2
	c-0.3,0.2-0.5,0.3-0.8,0.5c-0.3,0.2-0.5,0.3-0.8,0.5c-0.1,0.1-0.3,0.2-0.4,0.3c-0.1,0.1-0.3,0.2-0.4,0.3c-7.6,5.3-13.6,14.2-13,25.7
	c0,0,0,0,0.1,0C43.4,67.3,53.2,58.3,59,48.2z"/>
</svg>
