<?xml version="1.0" standalone="no"?><!DOCTYPE svg PUBLIC "-//W3C//DTD SVG 1.1//EN" "http://www.w3.org/Graphics/SVG/1.1/DTD/svg11.dtd"><svg t="1542004445036" class="icon" style="" viewBox="0 0 1024 1024" version="1.1" xmlns="http://www.w3.org/2000/svg" p-id="10652" xmlns:xlink="http://www.w3.org/1999/xlink" width="128" height="128"><defs><style type="text/css"></style></defs><path d="M538.6 508.7c17.6 0 32-14.4 32-32s-14.4-32-32-32H424.2l81.3-81.3c12.5-12.5 12.5-32.8 0-45.3s-32.8-12.5-45.3 0l-81.3 81.3-83.7-83.7c-12.5-12.5-32.8-12.5-45.3 0s-12.5 32.8 0 45.3l83.7 83.7h-115c-17.6 0-32 14.4-32 32s14.4 32 32 32h127.1v49.9H218.3c-17.6 0-32 14.4-32 32s14.4 32 32 32h127.5v59.9c0 17.6 14.4 32 32 32s32-14.4 32-32v-59.9h128.5c17.6 0 32-14.4 32-32s-14.4-32-32-32H409.7v-49.9h128.9z" fill="#ffffff" p-id="10653"></path><path d="M768 800v31.9l-0.1 0.1H128.1l-0.1-0.1V192.1l0.1-0.1h639.8l0.1 0.1V224c0 17.7 14.3 32 32 32s32-14.3 32-32v-32c0-35.2-28.8-64-64-64H128c-35.2 0-64 28.8-64 64v640c0 35.2 28.8 64 64 64h640c35.2 0 64-28.8 64-64v-32c0-17.7-14.3-32-32-32s-32 14.3-32 32z" fill="#ffffff" p-id="10654"></path><path d="M928.3 480h-212l115.6-114.7c12.5-12.5 12.6-32.7 0.2-45.3-12.5-12.5-32.7-12.6-45.3-0.2L610.1 495.2c-9.3 9.2-9.3 24.3 0 33.5L786 704c12.5 12.5 32.8 12.4 45.3-0.1s12.4-32.8-0.1-45.3L716.1 544h212.2c17.7 0 32-14.3 32-32s-14.4-32-32-32z" fill="#ffffff" p-id="10655"></path></svg>