<?xml version="1.0" standalone="no"?><!DOCTYPE svg PUBLIC "-//W3C//DTD SVG 1.1//EN" "http://www.w3.org/Graphics/SVG/1.1/DTD/svg11.dtd"><svg t="1542004512783" class="icon" style="" viewBox="0 0 1024 1024" version="1.1" xmlns="http://www.w3.org/2000/svg" p-id="11665" xmlns:xlink="http://www.w3.org/1999/xlink" width="128" height="128"><defs><style type="text/css"></style></defs><path d="M1007 388.1c-53.5 0-106.9-29.2-136.1-80.2-29.2-51-26.7-109.4-2.4-155.6C807.7 94.1 732.3 50.3 647.3 26c-26.7 46.2-77.8 77.8-136.1 77.8S401.8 72.2 375.1 26C290 50.3 214.6 94.1 153.9 152.4c26.7 46.2 26.7 106.9-2.4 155.6-29.2 51-80.2 77.8-133.7 80.2-9.7 41.3-17 82.6-17 126.4s4.9 87.5 17 126.4c53.5 0 106.9 29.2 133.7 80.2 29.2 51 26.7 109.4 2.4 155.6C214.6 935 290 981.2 375.1 1003.1c26.7-46.2 77.8-77.8 136.1-77.8s109.4 31.6 136.1 77.8c85.1-24.3 160.4-68.1 221.2-126.4-26.7-46.2-26.7-106.9 2.4-155.6 29.2-48.6 80.2-77.8 136.1-80.2 9.7-41.3 17-82.6 17-126.4 0-43.7-4.9-87.5-17-126.4z m-58.3 199.3c-55.9 14.6-106.9 51-136.1 104.5-31.6 53.5-38.9 114.2-21.9 170.1-36.5 29.2-77.8 53.5-121.5 70.5-41.3-41.3-99.7-65.6-158-65.6s-116.7 24.3-158 65.6c-43.7-17-85.1-41.3-121.5-70.5 17-55.9 7.3-119.1-21.9-170.1S129.6 602 73.7 587.4c-4.9-21.9-7.3-46.2-7.3-70.5 0-24.3 2.4-48.6 4.9-70.5 55.9-14.6 106.9-51 136.1-104.5 31.6-53.5 38.9-114.2 21.9-170.1 36.5-29.2 77.8-53.5 121.5-70.5 41.3 41.3 99.7 65.6 158 65.6s119.1-24.3 160.4-65.6c43.7 17 85.1 41.3 121.5 70.5-17 55.9-9.7 116.7 21.9 170.1 29.2 51 80.2 89.9 136.1 104.5 4.9 24.3 4.9 46.2 4.9 70.5s-2.5 48.7-4.9 70.5z" fill="#ffffff" p-id="11666"></path><path d="M511.2 322.5c-106.9 0-194.4 87.5-194.4 194.4s87.5 194.4 194.4 194.4S705.6 623.9 705.6 517s-87.5-194.5-194.4-194.5z m0 325.7C438.3 648.2 380 589.9 380 517s58.3-131.2 131.2-131.2S642.4 444 642.4 517s-58.3 131.2-131.2 131.2z" fill="#ffffff" p-id="11667"></path></svg>