<?xml version="1.0" standalone="no"?><!DOCTYPE svg PUBLIC "-//W3C//DTD SVG 1.1//EN" "http://www.w3.org/Graphics/SVG/1.1/DTD/svg11.dtd"><svg t="1542015419963" class="icon" style="" viewBox="0 0 1024 1024" version="1.1" xmlns="http://www.w3.org/2000/svg" p-id="3675" xmlns:xlink="http://www.w3.org/1999/xlink" width="128" height="128"><defs><style type="text/css"></style></defs><path d="M895.8435 934.1c0.1 6.8-2.6 13.4-7.4 18.3-4.8 4.9-11.4 7.6-18.2 7.6H153.6435c-14.2-0.1-25.7-11.7-25.6-25.9V678.4H76.8435v255.7c0 42.5 34.3 77 76.8 77h716.6c20.4 0 40-8.1 54.4-22.6 14.4-14.5 22.5-34.1 22.4-54.5V678.4h-51.2v255.7z m-9.6-363.6c-61.6 21.7-130-2-165.1-57.1l-48.7-76.6-40.4 81.2c-22.5 45.7-69.1 74.6-120.1 74.5-51 0.1-97.6-28.8-120.1-74.5l-40.4-81.2-48.6 76.6c-35 55.3-103.6 79-165.2 57.1-69-31.3-103.8-112.6-77.9-184.4l48.6-134.7L153.2435 75c1.1-4.6 9.2-10.9 13.9-10.9h691.6c4.8 0 12.8 6.2 13.9 10.9l46 183.9 45.5 126.9c25.9 71.8-9 153.2-77.9 184.7m126-202.1l-44-121.9-46-183.9C915.4435 35.1 886.9435 13 858.7435 13H167.1435c-28.3 0-56.7 22.3-63.6 49.7L61.7435 229.9l-1.5 4.1-48.7 134.7c-35.2 97.6 12.8 207.8 107.3 249.2 85.2 31.2 179.7-2.3 227.2-77.1 31.3 63 95.6 102.8 166 102.8S646.6435 603.8 677.9435 540.8c48.3 75.7 142.7 107.8 227.2 77.1 94.4-41.6 142.4-151.7 107.1-249.5" fill="#ffffff" p-id="3676"></path><path d="M793.4435 320.1h-563c-14.1 0-25.6 11.5-25.6 25.6 0 14.1 11.5 25.6 25.6 25.6h563c14.1 0 25.6-11.5 25.6-25.6 0-14.1-11.4-25.6-25.6-25.6" fill="#ffffff" p-id="3677"></path></svg>