<?xml version="1.0" standalone="no"?><!DOCTYPE svg PUBLIC "-//W3C//DTD SVG 1.1//EN" "http://www.w3.org/Graphics/SVG/1.1/DTD/svg11.dtd"><svg t="1542563730168" class="icon" style="" viewBox="0 0 1024 1024" version="1.1" xmlns="http://www.w3.org/2000/svg" p-id="1826" xmlns:xlink="http://www.w3.org/1999/xlink" width="128" height="128"><defs><style type="text/css"></style></defs><path d="M1019.904 387.072c-9.216-25.6-31.744-44.032-59.392-48.128l-266.24-38.912L578.56 61.44c-12.288-24.576-37.888-40.96-66.56-40.96s-54.272 16.384-66.56 40.96L329.728 300.032l-266.24 38.912c-27.648 4.096-50.176 22.528-59.392 48.128-9.216 25.6-2.048 53.248 17.408 72.704l195.584 193.536L172.032 921.6c-4.096 26.624 7.168 54.272 30.72 69.632 12.288 8.192 27.648 13.312 43.008 13.312 12.288 0 24.576-3.072 35.84-9.216L512 870.4l232.448 123.904c11.264 6.144 23.552 9.216 35.84 9.216 15.36 0 29.696-4.096 43.008-13.312 23.552-15.36 34.816-43.008 30.72-69.632L808.96 652.288l195.584-193.536c17.408-18.432 24.576-46.08 15.36-71.68z" p-id="1827" fill="#e8eaed"></path></svg>