<?xml version="1.0" standalone="no"?><!DOCTYPE svg PUBLIC "-//W3C//DTD SVG 1.1//EN" "http://www.w3.org/Graphics/SVG/1.1/DTD/svg11.dtd"><svg t="1536498908644" class="icon" style="" viewBox="0 0 1024 1024" version="1.1" xmlns="http://www.w3.org/2000/svg" p-id="7433" xmlns:xlink="http://www.w3.org/1999/xlink" width="128" height="128"><defs><style type="text/css"></style></defs><path d="M512.3 691.5c-69.2 0-125.5-56.3-125.5-125.5s56.3-125.5 125.5-125.5S637.8 496.8 637.8 566c0 25.8-7.8 50.5-22.5 71.6-5.7 8.1-16.8 10.1-24.9 4.5-8.1-5.7-10.1-16.8-4.5-24.9 10.5-15.1 16-32.7 16-51.1 0-49.4-40.2-89.6-89.6-89.6-49.4 0-89.6 40.2-89.6 89.6s40.2 89.6 89.6 89.6c8.1 0 16.1-1.1 23.8-3.2 9.4-2.6 19.4 2.9 22.1 12.5 2.6 9.5-3 19.4-12.5 22.1-10.8 2.9-22.1 4.4-33.4 4.4z" p-id="7434" fill="#2c3e50"></path><path d="M924.5 584H619c-9.9 0-17.9-8-17.9-17.9s8-17.9 17.9-17.9h305.5c9.9 0 17.9 8 17.9 17.9s-8 17.9-17.9 17.9zM404 584H100.1c-9.9 0-17.9-8-17.9-17.9s8-17.9 17.9-17.9H404c9.9 0 17.9 8 17.9 17.9s-8 17.9-17.9 17.9z m350.2-322.6c-9.9 0-17.9-8-17.9-17.9v-53.8c0-22.7-7.3-35.8-44.8-35.8H333.1c-37.5 0-44.8 13.1-44.8 35.8v53.8c0 9.9-8 17.9-17.9 17.9s-17.9-8-17.9-17.9v-53.8c0-32.7 14-71.7 80.7-71.7h358.5c66.7 0 80.7 39 80.7 71.7v53.8c-0.2 9.9-8.3 17.9-18.2 17.9z" p-id="7435" fill="#2c3e50"></path><path d="M870.7 906.6H153.8c-49.4 0-89.6-40.2-89.6-89.6V315.2c0-49.4 40.2-89.6 89.6-89.6h716.9c49.4 0 89.6 40.2 89.6 89.6V817c0.1 49.4-40.1 89.6-89.6 89.6zM153.8 261.4c-29.6 0-53.8 24.1-53.8 53.8V817c0 29.6 24.1 53.8 53.8 53.8h716.9c29.6 0 53.8-24.1 53.8-53.8V315.2c0-29.6-24.1-53.8-53.8-53.8H153.8z" p-id="7436" fill="#2c3e50"></path></svg>