<?xml version="1.0" standalone="no"?><!DOCTYPE svg PUBLIC "-//W3C//DTD SVG 1.1//EN" "http://www.w3.org/Graphics/SVG/1.1/DTD/svg11.dtd"><svg t="1542034596351" class="icon" style="" viewBox="0 0 1024 1024" version="1.1" xmlns="http://www.w3.org/2000/svg" p-id="1861" xmlns:xlink="http://www.w3.org/1999/xlink" width="128" height="128"><defs><style type="text/css"></style></defs><path d="M742.4 446.208c-53.376 0-98.624-45.248-98.624-98.688 0-53.504 45.248-98.752 98.624-98.752 53.504 0 98.752 45.248 98.752 98.752C841.152 400.96 795.904 446.208 742.4 446.208zM915.264 117.12c32.896 0 57.472 24.64 57.472 57.664l0 674.624c0 32.896-24.64 57.536-57.472 57.536L108.928 906.944c-33.024 0-57.664-24.704-57.664-57.536L51.264 174.72c0-33.024 24.64-57.664 57.664-57.664L915.264 117.056zM703.232 524.416l203.776 217.984L907.008 207.552c0-14.336-12.352-24.64-26.88-24.64L143.808 182.912c-14.4 0-24.704 10.368-26.752 24.64L117.056 742.4l259.2-312.576C384.512 421.504 396.8 413.312 411.264 413.312c14.336 0 26.688 4.096 34.944 14.4L557.312 549.12l8.256 8.064c6.144 4.16 14.336 8.256 22.592 8.256s16.512-4.096 24.64-10.304l37.12-32.896c8.128-6.144 16.384-10.304 26.624-10.304C686.848 512.064 697.152 516.16 703.232 524.416z" p-id="1862" fill="#b9bdc3"></path></svg>