<?xml version="1.0" standalone="no"?><!DOCTYPE svg PUBLIC "-//W3C//DTD SVG 1.1//EN" "http://www.w3.org/Graphics/SVG/1.1/DTD/svg11.dtd"><svg t="1542004167406" class="icon" style="" viewBox="0 0 1024 1024" version="1.1" xmlns="http://www.w3.org/2000/svg" p-id="6836" xmlns:xlink="http://www.w3.org/1999/xlink" width="128" height="128"><defs><style type="text/css"></style></defs><path d="M958.744 959H65.256c5.43-164.648 99.9-306.757 236.805-379.726A299.076 299.076 0 0 1 212 365c0-165.685 134.315-300 300-300s300 134.315 300 300a299.076 299.076 0 0 1-90.061 214.274C858.844 652.243 953.315 794.352 958.744 959zM752 365c0-132.548-107.452-240-240-240S272 232.452 272 365s107.452 240 240 240 240-107.452 240-240z m-82.542 255.384a300.157 300.157 0 0 1-314.916 0C241.3 670.886 156.782 774.182 132.269 899h759.462C867.218 774.182 782.7 670.886 669.458 620.384z" p-id="6837" fill="#2c3e50"></path></svg>